<?xml version="1.0" encoding="UTF-8"?>
<svg width="65px" height="101px" viewBox="0 0 65 101" version="1.1" xmlns="http://www.w3.org/2000/svg" xmlns:xlink="http://www.w3.org/1999/xlink">
    <title>logo_white</title>
    <defs>
        <polygon id="path-1" points="0 0.145922747 64.9997862 0.145922747 64.9997862 99.5708155 0 99.5708155"></polygon>
        <polygon id="path-3" points="0 99.8540773 65 99.8540773 65 0.429184549 0 0.429184549"></polygon>
    </defs>
    <g id="Page-1" stroke="none" stroke-width="1" fill="none" fill-rule="evenodd">
        <g id="Home-Copy-6" transform="translate(-688.000000, -44.000000)">
            <g id="logo_white" transform="translate(688.000000, 44.000000)">
                <g id="Group-3" transform="translate(0.000000, 0.283262)">
                    <mask id="mask-2" fill="white">
                        <use xlink:href="#path-1"></use>
                    </mask>
                    <g id="Clip-2"></g>
                    <path d="M60.7234704,95.27897 L4.27610197,95.27897 L4.27610197,18.8841202 L12.084227,18.8841202 C12.3121546,23.2939914 13.5411678,27.0622318 13.9910362,28.3090129 L13.9910362,30.5995708 C13.9910362,34.1429185 16.8634375,37.0253219 20.3931086,37.0253219 L20.5487664,37.0253219 C21.6503454,37.0253219 22.5466612,37.9248927 22.5466612,39.0317597 C22.5466612,43.0111588 25.7727138,46.2480687 29.7372862,46.2480687 L31.7959046,46.2480687 L32.1264638,46.2480687 L34.1850822,46.2480687 C38.1500822,46.2480687 41.3757072,43.0111588 41.3757072,39.0304721 C41.3757072,37.9248927 42.272023,37.0253219 43.3740296,37.0253219 L43.5292599,37.0253219 C47.0593586,37.0253219 49.9317599,34.1429185 49.9317599,30.5995708 L49.9317599,28.3090129 C50.380773,27.0622318 51.6102138,23.2939914 51.8385691,18.8841202 L60.7234704,18.8841202 L60.7234704,95.27897 Z M18.5149507,9.82274678 C20.8558059,6.36995708 25.3805757,4.61888412 31.9609704,4.61759657 C38.5422204,4.61888412 43.0665625,6.36995708 45.4078454,9.82274678 C49.7927796,16.2896996 45.6746875,26.9738197 45.6336349,27.0781116 L45.4758388,27.4759657 L45.4758388,30.5995708 C45.4758388,31.6772532 44.6026151,32.5536481 43.5292599,32.5536481 L43.3740296,32.5536481 C39.814852,32.5536481 36.9197862,35.4592275 36.9197862,39.0317597 C36.9197862,40.5454936 35.6933388,41.7763948 34.1850822,41.7763948 L32.1264638,41.7763948 L31.7959046,41.7763948 L29.7372862,41.7763948 C28.2294572,41.7763948 27.0025822,40.5454936 27.0025822,39.0304721 C27.0025822,35.4592275 24.1070888,32.5536481 20.5487664,32.5536481 L20.3931086,32.5536481 C19.3201809,32.5536481 18.4469572,31.6772532 18.4469572,30.5995708 L18.4456743,27.4763948 L18.2900164,27.0806867 C18.2481086,26.9738197 14.1295888,16.2896996 18.5149507,9.82274678 L18.5149507,9.82274678 Z M51.6987336,14.5922747 C51.3852796,12.0854077 50.616398,9.56309013 49.101727,7.32274678 C45.8837993,2.56309013 40.1184704,0.148927039 31.9678125,0.145922747 L31.9678125,0.145922747 C31.9656743,0.145922747 31.9635362,0.145922747 31.9609704,0.145922747 C31.9588322,0.145922747 31.9566941,0.145922747 31.9549836,0.145922747 L31.9549836,0.145922747 C23.803898,0.148927039 18.0389967,2.56309013 14.8206414,7.32274678 C13.3059704,9.56309013 12.5370888,12.0854077 12.2236349,14.5922747 L-0.000213815789,14.5922747 L-0.000213815789,99.5708155 L64.9997862,99.5708155 L64.9997862,14.5922747 L51.6987336,14.5922747 Z" id="Fill-1" fill="#FAFAFD" mask="url(#mask-2)"></path>
                </g>
                <path d="M29.6888783,36.8115021 C30.8747007,36.6466953 31.9206875,35.9153648 31.9206875,35.9153648 C31.9206875,35.9153648 32.9658191,36.6466953 34.1520691,36.8115021 C34.5754243,36.8703004 34.9384836,36.5063519 34.8743388,36.0818884 C34.660523,34.671588 33.9716086,31.6544206 31.9206875,30.7153648 C29.8693388,31.6544206 29.1804243,34.671588 28.9666086,36.0818884 C28.9020362,36.5063519 29.265523,36.8703004 29.6888783,36.8115021" id="Fill-4" fill="#FAFAFD"></path>
                <path d="M25.4000329,29.9646781 C25.4000329,29.9646781 29.1649013,30.1887124 29.5275329,26.2698283 C29.8901645,22.3513734 27.2683553,21.8754077 26.1808882,21.7354936 C25.0929934,21.5955794 22.4994079,21.5397854 21.6347368,21.7917167 C20.7704934,22.0432189 20.4360855,24.366824 20.8538816,26.3539485 C21.2725329,28.341073 22.4716118,30.0766953 25.4000329,29.9646781" id="Fill-6" fill="#FAFAFD"></path>
                <path d="M38.4323618,29.9646781 C41.3607829,30.0766953 42.5594342,28.341073 42.9780855,26.3539485 C43.3963092,24.366824 43.0619013,22.0432189 42.1972303,21.7917167 C41.3325592,21.5397854 38.7389737,21.5955794 37.6515066,21.7354936 C36.5636118,21.8754077 33.9422303,22.3513734 34.3048618,26.2698283 C34.6670658,30.1887124 38.4323618,29.9646781 38.4323618,29.9646781" id="Fill-8" fill="#FAFAFD"></path>
                <mask id="mask-4" fill="white">
                    <use xlink:href="#path-3"></use>
                </mask>
                <g id="Clip-11"></g>
                <polygon id="Fill-10" fill="#FAFAFD" mask="url(#mask-4)" points="11.4831908 55.0626609 15.7223026 55.0626609 15.7223026 51.6291845 11.4831908 51.6291845"></polygon>
                <polygon id="Fill-12" fill="#FAFAFD" mask="url(#mask-4)" points="17.8976645 55.0626609 52.2014145 55.0626609 52.2014145 51.6291845 17.8976645 51.6291845"></polygon>
                <polygon id="Fill-13" fill="#FAFAFD" mask="url(#mask-4)" points="17.8976645 63.1098712 52.2014145 63.1098712 52.2014145 59.6763948 17.8976645 59.6763948"></polygon>
                <polygon id="Fill-14" fill="#FAFAFD" mask="url(#mask-4)" points="11.4831908 71.1570815 15.7223026 71.1570815 15.7223026 67.7236052 11.4831908 67.7236052"></polygon>
                <polygon id="Fill-15" fill="#FAFAFD" mask="url(#mask-4)" points="17.8976645 71.1570815 52.2014145 71.1570815 52.2014145 67.7236052 17.8976645 67.7236052"></polygon>
                <polygon id="Fill-16" fill="#FAFAFD" mask="url(#mask-4)" points="17.8976645 79.2042918 52.2014145 79.2042918 52.2014145 75.7708155 17.8976645 75.7708155"></polygon>
                <polygon id="Fill-17" fill="#FAFAFD" mask="url(#mask-4)" points="17.8976645 87.2515021 33.2368092 87.2515021 33.2368092 83.8180258 17.8976645 83.8180258"></polygon>
            </g>
        </g>
    </g>
</svg>